<?xml version="1.0" encoding="UTF-8"?>
<svg id="Layer_2" data-name="Layer 2" xmlns="http://www.w3.org/2000/svg" viewBox="0 0 937.76 241.29">
  <defs>
    <style>
      .cls-1, .cls-2 {
        fill: #2563eb;
      }

      .cls-2 {
        fill-rule: evenodd;
      }
    </style>
  </defs>
  <g id="Layer_1-2" data-name="Layer 1">
    <g>
      <g>
        <path class="cls-2" d="M180.15,74.47c14.65,17.64,23.46,40.29,23.46,65.01,0,56.23-45.58,101.81-101.81,101.81S0,195.71,0,139.49c0-24.72,8.81-47.38,23.46-65.01-10.17,15.07-16.11,33.23-16.11,52.77,0,52.16,42.29,94.45,94.45,94.45s94.45-42.29,94.45-94.45c0-19.55-5.94-37.71-16.11-52.77Z"/>
        <path class="cls-2" d="M101.84,44.51c-10.83,0-21.18,2-30.72,5.65,3.16,1.98,8.29,2.99,15.99,4.02,1.77.24,3.09,1.76,3.09,3.54s-1.33,3.3-3.09,3.54c-9.23,1.24-14.78,2.45-17.65,5.32-2.87,2.87-4.08,8.42-5.32,17.65-.24,1.76-1.76,3.09-3.54,3.09s-3.3-1.33-3.54-3.09c-1.24-9.23-2.45-14.78-5.32-17.65-1.07-1.07-2.51-1.91-4.38-2.61-1.23,1.01-2.43,2.05-3.6,3.12v-.02c-17.16,15.72-27.93,38.31-27.93,63.41,0,27.84,13.24,52.59,33.76,68.3,0-.02,0-.05,0-.08.82-19.66,12.64-36.61,29.43-44.81,6.27,4.93,14.18,7.88,22.78,7.88s16.51-2.94,22.78-7.88c16.8,8.21,28.63,25.17,29.43,44.85,0,.01,0,.02,0,.03,14.06-10.77,24.71-25.78,30.01-43.12.17-.56.34-1.12.5-1.69.09-.34.19-.68.28-1.02.09-.34.18-.68.27-1.03,0,0,0-.02,0-.02.09-.34.17-.67.25-1.01.08-.34.17-.68.24-1.03,0,0,0-.02,0-.03.06-.26.12-.53.18-.8.03-.16.07-.32.1-.48.05-.21.09-.42.13-.64.07-.3.13-.6.18-.91.08-.41.16-.83.23-1.24.04-.21.07-.41.11-.62.07-.41.14-.83.21-1.25.69-4.39,1.05-8.88,1.05-13.47,0-47.47-38.48-85.95-85.95-85.95ZM101.81,155.25c-16.75,0-30.34-13.58-30.34-30.34s13.58-30.33,30.34-30.33,30.34,13.58,30.34,30.33-13.58,30.34-30.34,30.34Z"/>
        <path class="cls-1" d="M60.42,31.67c-2.75,20.49-5.38,23.13-25.88,25.88-.21.03-.21.33,0,.35,20.49,2.75,23.13,5.38,25.88,25.88.03.21.33.21.35,0,2.75-20.49,5.38-23.13,25.88-25.88.21-.03.21-.33,0-.35-20.49-2.75-23.13-5.38-25.88-25.88-.03-.21-.33-.21-.35,0Z"/>
        <path class="cls-1" d="M71.78,0c-2.01,15.5-3.65,17.13-19.14,19.14,15.5,2.01,17.13,3.65,19.14,19.14,2.01-15.5,3.65-17.13,19.14-19.14-15.5-2.01-17.13-3.65-19.14-19.14Z"/>
      </g>
      <g>
        <path d="M244.37,197.72c3.04-.36,5.33-1.09,6.85-2.21,1.52-1.12,2.6-2.88,3.23-5.29v-78.73c-.63-2.5-1.7-4.28-3.23-5.36-1.52-1.07-3.81-1.78-6.85-2.14h43.01c8.87.09,16.26,1.9,22.18,5.42,5.91,3.53,9.48,7.83,10.69,12.92,1.21,5.09,1.03,10.18-.54,15.26-1.57,5.09-5.44,9.46-11.63,13.12-6.18,3.66-13.67,5.54-22.45,5.62h-13.17v33.88c.54,2.41,1.57,4.17,3.09,5.29,1.52,1.12,3.81,1.85,6.85,2.21h-38.04ZM272.46,105.46v49.41h12.9c2.6,0,4.99-.56,7.19-1.67,2.19-1.12,4.01-2.63,5.44-4.55,1.43-1.92,2.64-4.1,3.63-6.56.98-2.45,1.59-5.04,1.81-7.77.22-2.72.25-5.47.07-8.24-.18-2.77-.76-5.38-1.75-7.83-.99-2.45-2.2-4.64-3.63-6.56-1.43-1.92-3.27-3.44-5.51-4.55-2.24-1.12-4.7-1.67-7.39-1.67h-12.77Z"/>
        <path d="M383.48,162.1v1.47h-45.43c0,5.54.78,10.4,2.35,14.6,1.57,4.2,3.56,7.43,5.98,9.71,2.42,2.28,5.17,3.95,8.27,5.02s6.14,1.41,9.14,1c3-.4,5.87-1.41,8.6-3.01,2.73-1.61,4.95-3.66,6.65-6.16l1.48.67c-3.41,4.55-7.3,8.03-11.69,10.44-4.39,2.41-9.81,3.62-16.26,3.62-9.5,0-17.29-3.39-23.39-10.18-6.09-6.78-9.14-14.95-9.14-24.5s3.23-17.01,9.68-22.9c6.45-5.89,14.29-8.84,23.52-8.84,2.15,0,4.37.2,6.65.6,2.29.4,4.79,1.27,7.53,2.61,2.73,1.34,5.2,3.04,7.39,5.09,2.19,2.05,4.12,4.87,5.78,8.44,1.66,3.57,2.62,7.68,2.89,12.32ZM338.05,162.1h29.43c-.27-6.25-1.19-11.54-2.75-15.87-1.57-4.33-3.41-7.36-5.51-9.1-2.11-1.74-4.39-2.5-6.85-2.28-2.47.22-4.73,1.38-6.79,3.48-2.06,2.1-3.81,5.25-5.24,9.44-1.43,4.2-2.2,8.97-2.28,14.33Z"/>
        <path d="M411.57,141.08c2.15-3.3,5.73-5.67,10.75-7.1,5.02-1.43,10.24-1.47,15.66-.13,5.42,1.34,9.56,3.97,12.43,7.9l-14.52,9.64c-.54-8.75-3.68-13.75-9.41-15-4.03-.89-7.8.18-11.29,3.21-2.42,2.05-3.63,4.28-3.63,6.69v43.92c1.16,3.93,3.49,6.43,6.99,7.5h-32.12c3.49-1.07,5.87-3.57,7.12-7.5v-42.71c-.63-1.87-1.48-3.3-2.55-4.28-1.08-.98-2.6-1.78-4.57-2.41,3.04-.71,7.33-1.78,12.84-3.21,5.51-1.43,9.61-2.45,12.3-3.08v6.56Z"/>
        <path d="M483.2,155.81c5.02,1.52,9.29,3.33,12.84,5.42,3.54,2.1,6.23,4.31,8.06,6.63,1.84,2.32,3.09,4.71,3.76,7.16.67,2.46.69,4.82.07,7.1-.63,2.28-1.7,4.46-3.23,6.56-1.52,2.1-3.41,3.91-5.65,5.42-2.24,1.52-4.84,2.74-7.8,3.68s-6.05,1.41-9.27,1.41c-11.02.09-21.1-2.99-30.24-9.24l6.85-9.77c.89,11.7,8.69,17.54,23.39,17.54,3.85,0,7.08-1.56,9.68-4.69,3.23-4.1,3-8.26-.67-12.45-3.41-4.02-9.59-7.36-18.55-10.04-4.21-1.61-7.71-3.68-10.48-6.23-2.78-2.54-4.59-5.18-5.44-7.9-.85-2.72-.99-5.49-.4-8.3.58-2.81,1.84-5.33,3.76-7.57,1.93-2.23,4.59-4.04,8-5.42,3.4-1.38,7.21-2.08,11.42-2.08,1.97,0,3.94.11,5.91.33,1.97.22,3.94.58,5.91,1.07,1.97.49,3.81,1.09,5.51,1.81,1.7.72,3.31,1.61,4.84,2.68,1.52,1.07,2.78,2.23,3.76,3.48l-6.99,6.43c-.09-2.77-.74-5.16-1.95-7.16-1.21-2.01-2.53-3.46-3.96-4.35-1.43-.89-3.16-1.58-5.17-2.08-2.02-.49-3.49-.76-4.44-.8-.94-.04-1.9-.02-2.89.07h-.27c-2.6,0-4.84.67-6.72,2.01-1.88,1.34-3.16,2.93-3.83,4.75-.67,1.83-.45,3.84.67,6.03,1.12,2.19,3.2,4,6.25,5.42,2.42,1.16,4.84,2.19,7.26,3.08Z"/>
        <path d="M532.86,135.86c4.25-1.87,9.03-2.81,14.31-2.81s10.06.94,14.31,2.81c4.25,1.88,7.68,4.38,10.28,7.5,2.6,3.13,4.61,6.67,6.05,10.65,1.43,3.97,2.15,8.01,2.15,12.12s-.72,8.15-2.15,12.12c-1.43,3.97-3.45,7.52-6.05,10.65-2.6,3.13-6.03,5.62-10.28,7.5-4.26,1.87-9.03,2.81-14.31,2.81s-10.06-.94-14.31-2.81c-4.26-1.88-7.71-4.37-10.35-7.5-2.64-3.12-4.66-6.67-6.05-10.65-1.39-3.97-2.08-8.01-2.08-12.12s.69-8.15,2.08-12.12c1.39-3.97,3.4-7.52,6.05-10.65,2.64-3.12,6.09-5.62,10.35-7.5ZM539.05,193.04c2.29,3.13,4.99,4.69,8.13,4.69s5.85-1.56,8.13-4.69c2.28-3.12,3.94-7.03,4.97-11.72,1.03-4.69,1.55-9.75,1.55-15.2s-.52-10.51-1.55-15.2c-1.03-4.69-2.69-8.59-4.97-11.72-2.29-3.12-5-4.69-8.13-4.69s-5.85,1.56-8.13,4.69c-2.28,3.13-3.94,7.03-4.97,11.72-1.03,4.69-1.55,9.75-1.55,15.2s.51,10.51,1.55,15.2c1.03,4.69,2.69,8.59,4.97,11.72Z"/>
        <path d="M625.67,197.72c3.5-1.07,5.87-3.57,7.12-7.5,0-2.68.02-8.3.07-16.87.04-8.57.07-15.17.07-19.82-.09-9.73-3.09-15.4-9-17.01-3.94-1.07-7.8-.13-11.56,2.81-2.6,2.05-3.9,4.38-3.9,6.96v43.92c1.16,3.93,3.49,6.43,6.99,7.5h-32.12c3.49-1.07,5.87-3.57,7.12-7.5v-42.71c-.63-1.87-1.48-3.3-2.55-4.28-1.08-.98-2.6-1.78-4.57-2.41,2.96-.71,7.19-1.78,12.7-3.21,5.51-1.43,9.65-2.45,12.43-3.08v6.56c1.25-1.96,3.2-3.64,5.85-5.02,2.64-1.38,5.53-2.32,8.67-2.81,3.13-.49,6.36-.45,9.68.13,3.31.58,6.32,1.63,9,3.15,2.69,1.52,4.88,3.8,6.59,6.83,1.7,3.04,2.55,6.52,2.55,10.44v36.42c1.25,3.93,3.58,6.43,6.99,7.5h-32.12Z"/>
        <path d="M725,197.72h-25.13v-5.22c-.09.09-.81.49-2.15,1.21-1.34.72-2.31,1.21-2.89,1.47-.58.27-1.64.72-3.16,1.34-1.53.63-2.87,1.09-4.03,1.41-1.17.31-2.62.6-4.37.87-1.75.27-3.47.4-5.18.4-6.9,0-11.83-2.86-14.78-8.57-2.87-5.44-2.87-11.2,0-17.27,3.4-7.32,9.81-12.01,19.22-14.06,2.06-.45,4.21-.71,6.45-.8,2.69-.09,5.18-.67,7.46-1.74,2.29-1.07,3.38-2.68,3.29-4.82,0-.71.02-1.9.07-3.55.04-1.65.04-2.99,0-4.02-.05-1.03-.18-2.25-.4-3.68-.22-1.43-.56-2.54-1.01-3.35-.45-.8-1.17-1.49-2.15-2.08-.99-.58-2.2-.87-3.63-.87-6.18,0-10.93,1.87-14.25,5.62-3.32,3.75-5.47,8.44-6.45,14.06l-6.32-11.38c2.24-2.86,5.96-5.2,11.16-7.03,5.2-1.83,10.48-2.75,15.86-2.75,3.04,0,5.98.33,8.8,1,2.82.67,5.53,1.7,8.13,3.08,2.6,1.39,4.66,3.44,6.18,6.16,1.52,2.72,2.29,5.96,2.29,9.71v37.36c1.25,3.93,3.58,6.43,6.99,7.5ZM689.65,160.36c-4.93,1.43-8.51,5.36-10.75,11.78-2.15,6.43-2.11,12.1.13,17.01,2.69,5.8,7.53,7.5,14.52,5.09,1.97-.62,4.03-1.61,6.18-2.95l-.13-35.22c-1.7,1.43-5.02,2.86-9.95,4.29Z"/>
        <path d="M725,197.72c3.04-.36,5.33-1.09,6.85-2.21,1.52-1.12,2.6-2.88,3.23-5.29v-78.73c-.63-2.5-1.7-4.28-3.23-5.36-1.52-1.07-3.81-1.78-6.85-2.14h43.01c8.87.09,16.26,1.9,22.18,5.42,5.91,3.53,9.48,7.83,10.69,12.92,1.21,5.09,1.03,10.18-.54,15.26-1.57,5.09-5.44,9.46-11.63,13.12-6.18,3.66-13.67,5.54-22.45,5.62h-13.17v33.88c.54,2.41,1.57,4.17,3.09,5.29,1.52,1.12,3.81,1.85,6.85,2.21h-38.04ZM753.09,105.46v49.41h12.9c2.6,0,4.99-.56,7.19-1.67,2.19-1.12,4.01-2.63,5.44-4.55,1.43-1.92,2.64-4.1,3.63-6.56.99-2.45,1.59-5.04,1.81-7.77.22-2.72.25-5.47.07-8.24-.18-2.77-.76-5.38-1.75-7.83-.99-2.45-2.2-4.64-3.63-6.56-1.43-1.92-3.27-3.44-5.51-4.55-2.24-1.12-4.7-1.67-7.39-1.67h-12.77Z"/>
        <path d="M829.96,141.08c2.15-3.3,5.73-5.67,10.75-7.1,5.02-1.43,10.24-1.47,15.66-.13,5.42,1.34,9.56,3.97,12.43,7.9l-14.52,9.64c-.54-8.75-3.67-13.75-9.41-15-4.03-.89-7.79.18-11.29,3.21-2.42,2.05-3.63,4.28-3.63,6.69v43.92c1.16,3.93,3.5,6.43,6.99,7.5h-32.12c3.49-1.07,5.87-3.57,7.12-7.5v-42.71c-.63-1.87-1.48-3.3-2.55-4.28-1.08-.98-2.6-1.78-4.57-2.41,3.04-.71,7.32-1.78,12.83-3.21,5.51-1.43,9.61-2.45,12.3-3.08v6.56Z"/>
        <path d="M887.42,135.86c4.25-1.87,9.03-2.81,14.31-2.81s10.06.94,14.31,2.81c4.25,1.88,7.68,4.38,10.28,7.5,2.6,3.13,4.61,6.67,6.05,10.65,1.43,3.97,2.15,8.01,2.15,12.12s-.72,8.15-2.15,12.12c-1.43,3.97-3.45,7.52-6.05,10.65-2.6,3.13-6.03,5.62-10.28,7.5-4.26,1.87-9.03,2.81-14.31,2.81s-10.06-.94-14.31-2.81c-4.26-1.88-7.71-4.37-10.35-7.5-2.64-3.12-4.66-6.67-6.05-10.65-1.39-3.97-2.08-8.01-2.08-12.12s.69-8.15,2.08-12.12c1.39-3.97,3.4-7.52,6.05-10.65,2.64-3.12,6.09-5.62,10.35-7.5ZM893.61,193.04c2.29,3.13,4.99,4.69,8.13,4.69s5.85-1.56,8.13-4.69c2.29-3.12,3.94-7.03,4.97-11.72,1.03-4.69,1.54-9.75,1.54-15.2s-.52-10.51-1.54-15.2c-1.03-4.69-2.69-8.59-4.97-11.72-2.28-3.12-5-4.69-8.13-4.69s-5.85,1.56-8.13,4.69c-2.29,3.13-3.94,7.03-4.97,11.72-1.03,4.69-1.55,9.75-1.55,15.2s.51,10.51,1.55,15.2c1.03,4.69,2.69,8.59,4.97,11.72Z"/>
      </g>
    </g>
  </g>
</svg>