<?xml version="1.0" encoding="UTF-8"?>
<svg id="Layer_2" data-name="Layer 2" xmlns="http://www.w3.org/2000/svg" viewBox="0 0 203.61 241.29">
  <defs>
    <style>
      .cls-1, .cls-2 {
        fill: #2563eb;
      }

      .cls-2 {
        fill-rule: evenodd;
      }
    </style>
  </defs>
  <g id="Layer_1-2" data-name="Layer 1">
    <g>
      <path class="cls-2" d="M180.15,74.47c14.65,17.64,23.46,40.29,23.46,65.01,0,56.23-45.58,101.81-101.81,101.81S0,195.71,0,139.49c0-24.72,8.81-47.38,23.46-65.01-10.17,15.07-16.11,33.23-16.11,52.77,0,52.16,42.29,94.45,94.45,94.45s94.45-42.29,94.45-94.45c0-19.55-5.94-37.71-16.11-52.77Z"/>
      <path class="cls-2" d="M101.84,44.51c-10.83,0-21.18,2-30.72,5.65,3.16,1.98,8.29,2.99,15.99,4.02,1.77.24,3.09,1.76,3.09,3.54s-1.33,3.3-3.09,3.54c-9.23,1.24-14.78,2.45-17.65,5.32s-4.08,8.42-5.32,17.65c-.24,1.76-1.76,3.09-3.54,3.09s-3.3-1.33-3.54-3.09c-1.24-9.23-2.45-14.78-5.32-17.65-1.07-1.07-2.51-1.91-4.38-2.61-1.23,1.01-2.43,2.05-3.6,3.12v-.02c-17.16,15.72-27.93,38.31-27.93,63.41,0,27.84,13.24,52.59,33.76,68.3,0-.02,0-.05,0-.08.82-19.66,12.64-36.61,29.43-44.81,6.27,4.93,14.18,7.88,22.78,7.88s16.51-2.94,22.78-7.88c16.8,8.21,28.63,25.17,29.43,44.85,0,.01,0,.02,0,.03,14.06-10.77,24.71-25.78,30.01-43.12.17-.56.34-1.12.5-1.69.09-.34.19-.68.28-1.02.09-.34.18-.68.27-1.03,0,0,0-.02,0-.02.09-.34.17-.67.25-1.01.08-.34.17-.68.24-1.03,0,0,0-.02,0-.03.06-.26.12-.53.18-.8.03-.16.07-.32.1-.48.05-.21.09-.42.13-.64.07-.3.13-.6.18-.91.08-.41.16-.83.23-1.24.04-.21.07-.41.11-.62.07-.41.14-.83.21-1.25.69-4.39,1.05-8.88,1.05-13.47,0-47.47-38.48-85.95-85.95-85.95ZM101.81,155.25c-16.75,0-30.34-13.58-30.34-30.34s13.58-30.33,30.34-30.33,30.34,13.58,30.34,30.33-13.58,30.34-30.34,30.34Z"/>
      <path class="cls-1" d="M60.42,31.67c-2.75,20.49-5.38,23.13-25.88,25.88-.21.03-.21.33,0,.35,20.49,2.75,23.13,5.38,25.88,25.88.03.21.33.21.35,0,2.75-20.49,5.38-23.13,25.88-25.88.21-.03.21-.33,0-.35-20.49-2.75-23.13-5.38-25.88-25.88-.03-.21-.33-.21-.35,0Z"/>
      <path class="cls-1" d="M71.78,0c-2.01,15.5-3.65,17.13-19.14,19.14,15.5,2.01,17.13,3.65,19.14,19.14,2.01-15.5,3.65-17.13,19.14-19.14-15.5-2.01-17.13-3.65-19.14-19.14Z"/>
    </g>
  </g>
</svg>